<svg xmlns="http://www.w3.org/2000/svg" xmlns:xlink="http://www.w3.org/1999/xlink" width="250" zoomAndPan="magnify" viewBox="0 0 187.5 74.999997" height="100" preserveAspectRatio="xMidYMid meet" version="1.0"><defs><g/><clipPath id="87cacd7caa"><rect x="0" width="187" y="0" height="70"/></clipPath></defs><g transform="matrix(1, 0, 0, 1, 0, 2)"><g clip-path="url(#87cacd7caa)"><g fill="#bd8648" fill-opacity="1"><g transform="translate(0.561328, 52.977019)"><g><path d="M 2.828125 -0.625 L 3.140625 -0.625 C 3.484375 -0.625 3.78125 -0.738281 4.03125 -0.96875 C 4.28125 -1.207031 4.5 -1.492188 4.6875 -1.828125 C 4.875 -2.160156 5.019531 -2.515625 5.125 -2.890625 C 5.226562 -3.265625 5.28125 -3.625 5.28125 -3.96875 L 5.28125 -37.625 C 5.28125 -37.914062 5.226562 -38.25 5.125 -38.625 C 5.019531 -39.007812 4.875 -39.367188 4.6875 -39.703125 C 4.5 -40.035156 4.28125 -40.316406 4.03125 -40.546875 C 3.78125 -40.785156 3.484375 -40.90625 3.140625 -40.90625 L 2.828125 -40.90625 L 2.828125 -41.53125 L 11.890625 -41.53125 L 11.890625 -40.90625 L 11.578125 -40.90625 C 11.242188 -40.90625 10.945312 -40.785156 10.6875 -40.546875 C 10.4375 -40.316406 10.226562 -40.035156 10.0625 -39.703125 C 9.894531 -39.367188 9.757812 -39.007812 9.65625 -38.625 C 9.550781 -38.25 9.5 -37.914062 9.5 -37.625 L 9.5 -2.328125 L 23.28125 -2.328125 C 24.082031 -2.328125 24.773438 -2.515625 25.359375 -2.890625 C 25.941406 -3.265625 26.429688 -3.734375 26.828125 -4.296875 C 27.234375 -4.867188 27.53125 -5.476562 27.71875 -6.125 C 27.90625 -6.78125 28 -7.378906 28 -7.921875 L 28.625 -7.921875 L 28.625 0 L 2.828125 0 Z M 2.828125 -0.625 "/></g></g></g><g fill="#bd8648" fill-opacity="1"><g transform="translate(29.816474, 52.977019)"><g><path d="M 27.75 -4.09375 C 27.75 -3.800781 27.789062 -3.453125 27.875 -3.046875 C 27.957031 -2.648438 28.070312 -2.273438 28.21875 -1.921875 C 28.363281 -1.566406 28.5625 -1.257812 28.8125 -1 C 29.070312 -0.75 29.367188 -0.625 29.703125 -0.625 L 29.703125 0 L 23.59375 0 L 23.59375 -3.453125 C 22.96875 -2.535156 22.046875 -1.632812 20.828125 -0.75 C 19.609375 0.121094 18.035156 0.5625 16.109375 0.5625 C 13.671875 0.5625 11.738281 0.144531 10.3125 -0.6875 C 8.894531 -1.53125 7.804688 -2.601562 7.046875 -3.90625 C 6.296875 -5.207031 5.8125 -6.617188 5.59375 -8.140625 C 5.382812 -9.671875 5.28125 -11.109375 5.28125 -12.453125 L 5.28125 -21.453125 C 5.28125 -21.828125 5.269531 -22.191406 5.25 -22.546875 C 5.226562 -22.910156 5.144531 -23.238281 5 -23.53125 C 4.851562 -23.820312 4.632812 -24.0625 4.34375 -24.25 C 4.050781 -24.445312 3.628906 -24.546875 3.078125 -24.546875 L 3.078125 -25.109375 L 9.4375 -27.125 L 9.4375 -11.078125 C 9.4375 -7.890625 10.128906 -5.539062 11.515625 -4.03125 C 12.898438 -2.519531 14.597656 -1.765625 16.609375 -1.765625 C 17.703125 -1.765625 18.675781 -2.003906 19.53125 -2.484375 C 20.394531 -2.960938 21.128906 -3.535156 21.734375 -4.203125 C 22.347656 -4.878906 22.8125 -5.570312 23.125 -6.28125 C 23.4375 -7 23.59375 -7.585938 23.59375 -8.046875 L 23.59375 -21.453125 C 23.59375 -21.828125 23.582031 -22.191406 23.5625 -22.546875 C 23.539062 -22.910156 23.457031 -23.238281 23.3125 -23.53125 C 23.164062 -23.820312 22.945312 -24.0625 22.65625 -24.25 C 22.363281 -24.445312 21.941406 -24.546875 21.390625 -24.546875 L 21.390625 -25.109375 L 27.75 -27.125 Z M 27.75 -4.09375 "/></g></g></g><g fill="#bd8648" fill-opacity="1"><g transform="translate(62.783559, 52.977019)"><g><path d="M 19 -0.625 C 19.800781 -0.625 20.203125 -0.921875 20.203125 -1.515625 C 20.203125 -1.722656 19.945312 -2.179688 19.4375 -2.890625 L 13.15625 -11.578125 L 6.609375 -2.703125 C 6.484375 -2.535156 6.335938 -2.304688 6.171875 -2.015625 C 6.003906 -1.722656 5.921875 -1.472656 5.921875 -1.265625 C 5.921875 -0.835938 6.148438 -0.625 6.609375 -0.625 L 6.609375 0 L 0.6875 0 L 0.6875 -0.625 C 1.28125 -0.625 1.910156 -0.863281 2.578125 -1.34375 C 3.253906 -1.832031 3.820312 -2.410156 4.28125 -3.078125 L 11.890625 -13.40625 L 4.84375 -22.96875 C 4.632812 -23.21875 4.394531 -23.507812 4.125 -23.84375 C 3.851562 -24.175781 3.535156 -24.488281 3.171875 -24.78125 C 2.816406 -25.082031 2.460938 -25.328125 2.109375 -25.515625 C 1.753906 -25.703125 1.425781 -25.796875 1.125 -25.796875 L 1.125 -26.421875 L 10.3125 -26.421875 L 10.3125 -25.796875 C 10.0625 -25.796875 9.800781 -25.710938 9.53125 -25.546875 C 9.257812 -25.378906 9.125 -25.066406 9.125 -24.609375 C 9.125 -24.304688 9.25 -24.007812 9.5 -23.71875 L 14.59375 -16.671875 L 19.4375 -23.09375 C 19.78125 -23.507812 19.992188 -23.84375 20.078125 -24.09375 C 20.160156 -24.351562 20.203125 -24.585938 20.203125 -24.796875 C 20.203125 -25.046875 20.125 -25.273438 19.96875 -25.484375 C 19.820312 -25.691406 19.601562 -25.796875 19.3125 -25.796875 L 19.3125 -26.421875 L 25.359375 -26.421875 L 25.359375 -25.796875 C 24.679688 -25.796875 24.050781 -25.46875 23.46875 -24.8125 C 22.882812 -24.164062 22.359375 -23.550781 21.890625 -22.96875 L 15.796875 -14.84375 L 24.21875 -3.453125 C 24.769531 -2.703125 25.421875 -2.039062 26.171875 -1.46875 C 26.929688 -0.90625 27.625 -0.625 28.25 -0.625 L 28.25 0 L 19 0 Z M 19 -0.625 "/></g></g></g><g fill="#bd8648" fill-opacity="1"><g transform="translate(92.101627, 52.977019)"><g><path d="M 19.4375 0 L 19.4375 -3.203125 L 19.125 -2.890625 C 18.082031 -1.847656 16.878906 -1.03125 15.515625 -0.4375 C 14.148438 0.144531 12.503906 0.4375 10.578125 0.4375 C 9.109375 0.4375 7.847656 0.269531 6.796875 -0.0625 C 5.742188 -0.394531 4.878906 -0.863281 4.203125 -1.46875 C 3.535156 -2.082031 3.046875 -2.785156 2.734375 -3.578125 C 2.421875 -4.378906 2.265625 -5.222656 2.265625 -6.109375 C 2.265625 -7.535156 2.648438 -8.789062 3.421875 -9.875 C 4.203125 -10.96875 5.328125 -11.929688 6.796875 -12.765625 C 8.265625 -13.609375 10.054688 -14.375 12.171875 -15.0625 C 14.296875 -15.757812 16.71875 -16.441406 19.4375 -17.109375 C 19.351562 -18.742188 19.019531 -20.066406 18.4375 -21.078125 C 17.851562 -22.085938 17.160156 -22.875 16.359375 -23.4375 C 15.566406 -24 14.726562 -24.375 13.84375 -24.5625 C 12.957031 -24.757812 12.203125 -24.859375 11.578125 -24.859375 C 10.484375 -24.859375 9.523438 -24.6875 8.703125 -24.34375 C 7.890625 -24.007812 7.175781 -23.582031 6.5625 -23.0625 C 5.957031 -22.539062 5.445312 -21.972656 5.03125 -21.359375 C 4.613281 -20.753906 4.28125 -20.175781 4.03125 -19.625 L 3.453125 -19.625 L 3.453125 -24.21875 C 3.796875 -24.257812 4.113281 -24.363281 4.40625 -24.53125 C 4.695312 -24.707031 5.050781 -24.878906 5.46875 -25.046875 C 6.101562 -25.296875 6.960938 -25.660156 8.046875 -26.140625 C 9.140625 -26.628906 10.671875 -26.875 12.640625 -26.875 C 14.953125 -26.875 16.820312 -26.578125 18.25 -25.984375 C 19.675781 -25.398438 20.773438 -24.625 21.546875 -23.65625 C 22.328125 -22.695312 22.84375 -21.597656 23.09375 -20.359375 C 23.34375 -19.117188 23.46875 -17.847656 23.46875 -16.546875 L 23.46875 -4.09375 C 23.46875 -3.25 23.65625 -2.457031 24.03125 -1.71875 C 24.414062 -0.988281 24.921875 -0.625 25.546875 -0.625 L 25.546875 0 Z M 19.4375 -5.984375 L 19.4375 -14.96875 L 18.8125 -14.84375 C 17.800781 -14.59375 16.570312 -14.257812 15.125 -13.84375 C 13.6875 -13.425781 12.316406 -12.878906 11.015625 -12.203125 C 9.710938 -11.535156 8.597656 -10.738281 7.671875 -9.8125 C 6.753906 -8.894531 6.296875 -7.828125 6.296875 -6.609375 C 6.296875 -5.265625 6.835938 -4.148438 7.921875 -3.265625 C 9.015625 -2.390625 10.441406 -1.953125 12.203125 -1.953125 C 13.585938 -1.953125 14.800781 -2.253906 15.84375 -2.859375 C 16.894531 -3.472656 17.863281 -4.257812 18.75 -5.21875 Z M 19.4375 -5.984375 "/></g></g></g><g fill="#bd8648" fill-opacity="1"><g transform="translate(120.853464, 52.977019)"><g><path d="M 3.078125 0 L 3.078125 -0.625 C 3.421875 -0.625 3.71875 -0.75 3.96875 -1 C 4.21875 -1.257812 4.4375 -1.554688 4.625 -1.890625 C 4.8125 -2.222656 4.945312 -2.585938 5.03125 -2.984375 C 5.113281 -3.390625 5.15625 -3.757812 5.15625 -4.09375 L 5.15625 -36.3125 C 5.15625 -37.019531 5.050781 -37.6875 4.84375 -38.3125 C 4.632812 -38.945312 4.003906 -39.285156 2.953125 -39.328125 L 2.953125 -39.953125 L 9.3125 -41.90625 L 9.3125 -4.09375 C 9.3125 -3.757812 9.351562 -3.390625 9.4375 -2.984375 C 9.519531 -2.585938 9.65625 -2.222656 9.84375 -1.890625 C 10.03125 -1.554688 10.238281 -1.257812 10.46875 -1 C 10.707031 -0.75 10.992188 -0.625 11.328125 -0.625 L 11.328125 0 Z M 3.078125 0 "/></g></g></g><g fill="#bd8648" fill-opacity="1"><g transform="translate(135.38667, 52.977019)"><g><path d="M 18.1875 -21.828125 C 17.675781 -22.671875 17.148438 -23.195312 16.609375 -23.40625 C 16.066406 -23.613281 15.4375 -23.71875 14.71875 -23.71875 C 14.257812 -23.71875 13.765625 -23.613281 13.234375 -23.40625 C 12.710938 -23.195312 12.203125 -22.921875 11.703125 -22.578125 C 11.203125 -22.242188 10.707031 -21.878906 10.21875 -21.484375 C 9.738281 -21.085938 9.332031 -20.722656 9 -20.390625 L 9 -4.03125 C 9 -3.695312 9.039062 -3.335938 9.125 -2.953125 C 9.207031 -2.578125 9.34375 -2.210938 9.53125 -1.859375 C 9.71875 -1.503906 9.925781 -1.207031 10.15625 -0.96875 C 10.394531 -0.738281 10.679688 -0.625 11.015625 -0.625 L 11.015625 0 L 2.828125 0 L 2.828125 -0.625 C 3.117188 -0.625 3.390625 -0.738281 3.640625 -0.96875 C 3.898438 -1.207031 4.125 -1.503906 4.3125 -1.859375 C 4.5 -2.210938 4.632812 -2.578125 4.71875 -2.953125 C 4.800781 -3.335938 4.84375 -3.695312 4.84375 -4.03125 L 4.84375 -21.578125 C 4.84375 -22.171875 4.65625 -22.757812 4.28125 -23.34375 C 3.90625 -23.925781 3.359375 -24.304688 2.640625 -24.484375 L 2.640625 -24.984375 L 9 -26.875 L 9 -23.09375 C 9.375 -23.550781 9.769531 -24 10.1875 -24.4375 C 10.613281 -24.882812 11.085938 -25.285156 11.609375 -25.640625 C 12.128906 -25.992188 12.703125 -26.285156 13.328125 -26.515625 C 13.960938 -26.753906 14.703125 -26.875 15.546875 -26.875 C 16.128906 -26.875 16.878906 -26.742188 17.796875 -26.484375 C 18.722656 -26.234375 19.484375 -25.960938 20.078125 -25.671875 Z M 18.1875 -21.828125 "/></g></g></g><g fill="#bd8648" fill-opacity="1"><g transform="translate(156.588787, 52.977019)"><g><path d="M 12.90625 9 C 12.3125 10.757812 11.5625 11.953125 10.65625 12.578125 C 9.757812 13.210938 8.828125 13.53125 7.859375 13.53125 C 7.234375 13.53125 6.675781 13.445312 6.1875 13.28125 C 5.707031 13.113281 5.289062 12.910156 4.9375 12.671875 C 4.582031 12.441406 4.300781 12.222656 4.09375 12.015625 C 3.882812 11.804688 3.757812 11.640625 3.71875 11.515625 L 5.78125 6.421875 C 6 7.171875 6.210938 7.734375 6.421875 8.109375 C 6.628906 8.535156 6.921875 8.914062 7.296875 9.25 C 7.671875 9.582031 8.132812 9.75 8.6875 9.75 C 9.6875 9.75 10.484375 9.015625 11.078125 7.546875 L 14.15625 -0.1875 L 4.03125 -23.09375 C 3.820312 -23.59375 3.472656 -24.164062 2.984375 -24.8125 C 2.503906 -25.46875 1.84375 -25.796875 1 -25.796875 L 1 -26.421875 L 9.3125 -26.421875 L 9.3125 -25.796875 C 9.144531 -25.796875 8.9375 -25.648438 8.6875 -25.359375 C 8.4375 -25.066406 8.3125 -24.6875 8.3125 -24.21875 C 8.3125 -23.84375 8.394531 -23.507812 8.5625 -23.21875 L 16.296875 -5.40625 L 23.71875 -23.59375 C 23.84375 -23.882812 23.90625 -24.15625 23.90625 -24.40625 C 23.90625 -24.832031 23.769531 -25.171875 23.5 -25.421875 C 23.226562 -25.671875 22.945312 -25.796875 22.65625 -25.796875 L 22.65625 -26.421875 L 28.75 -26.421875 L 28.75 -25.796875 C 28.082031 -25.796875 27.503906 -25.507812 27.015625 -24.9375 C 26.535156 -24.375 26.148438 -23.738281 25.859375 -23.03125 Z M 12.90625 9 "/></g></g></g></g></g></svg>